<svg id="Colorado" xmlns="http://www.w3.org/2000/svg" viewBox="0 0 300.52 219.26"><defs><style>.cls-1{fill:#e9efb6;stroke:#bdd142;stroke-linecap:round;stroke-linejoin:round;stroke-width:0.5px;}.cls-2{fill:#e83d3d;}</style></defs><title>colorado</title><path class="cls-1" d="M509.72,369.38q0-13-.08-25.93,0-13.5-.09-27-0.06-13.18-.09-26.37t-0.08-26.4q0-13.16-.08-26.31c0-8.93-.07-17.85-0.07-26.78q0-14.21,0-28.43,0-10.77,0-21.54H209.73V279.73q0,6.76,0,13.52,0,10,0,19.93v66.19h300q0-5,0-10" transform="translate(-209.47 -160.36)"/><polygon class="cls-2" points="181.45 62.91 183.7 69.84 191 69.84 185.09 74.13 187.35 81.07 181.45 76.78 175.54 81.07 177.8 74.13 171.9 69.84 179.19 69.84 181.45 62.91"/></svg>