<svg id="Florida" xmlns="http://www.w3.org/2000/svg" viewBox="0 0 310.32 296.92"><defs><style>.cls-1{fill:#e9efb6;stroke:#bdd142;stroke-linecap:round;stroke-linejoin:round;stroke-width:0.5px;}.cls-2{fill:#e83d3d;}.cls-3{fill:#fff;}</style></defs><title>florida</title><path class="cls-1" d="M462.16,411.13h-0.31l-0.16.15,0.12,0.3,0.13,0.16,0.37,0.25,0.31,0.42,0.09-.22-0.21-.66Zm-3.88,2.17,0.11,0.14,0.29,0.18,0.17-.35-0.29-.18Zm1.88-51.57-0.47.31,0,0.22,1.08,0.43,0.3-.07,0.3-.32-0.15-.31-0.47-.1-0.23.06-0.17.1-0.11-.2ZM459.78,410l-1.22-1-0.29,0-0.12-.07-0.12-.16,2.7,4.18,0.06,1.34,0.9-.68-0.6-1.76Zm-1.23-48.51,0.45,0.54,0.13,0.15,0.15,0.07v-0.13l0.11-.13,0.15-.2,0.24-.17,0.41,0,0.28-.13-0.11-.28-0.29-.22-0.28-.14-0.73-.58-0.28-.28-0.7-.35-0.46.39,0,0.45,0.06,0.26v1l0.26,0,0.32-.31Zm-1.46-.76,0.12-.3-0.12-.3L457,360l-0.08-.38-0.29-.69-0.37-.31-0.64.13-0.18.09-0.36.08-0.55.28-0.12.49,0.2,0.27,0.12,0.12v0.18l0,0,0.07-.3,0-.18v-0.21l0.21-.16,0.19,0.15,0.12,0.16,0.64,0.05,0.23,0.32,0.12,0.24,0.17,0.26,0.29,0.29Zm0.22,51.37-0.3,0-0.08.14h0.14l-0.06.07-0.27.23,0.05,0.3,0.47,0.41,0.1,0.19h0.21l0.09-.45-0.11-.5Zm7.46,0.41-0.51.61,0.06,0.09,0.4-.21,0.33-.31-0.07-.18h-0.2Zm23.91-19.32,0.57,0.34-0.15-.28Zm-1.36-1.51,0.22,0.35,0.07-.36h-0.29Zm1.34,0.71-0.18-.11-0.05.45,0.12-.05,0.16,0Zm-17.78,18.14L470,411h1.31l0.46,0.27,0.21,0.66,0.21-.6,0.26-.42,0.36-.3,1-.39,0.12-.13,0-.31-0.88.13Zm15.67-12.79,0,0.29,0.28-.23ZM455.91,412l-0.13-.15-0.3-.24-0.31-.15-0.25,0-0.19-.12-0.13,0-0.17.47,0,0.59,0.17,0.39,0.1,0.09,0.11,0.08,0.19,0.05,0.17-.11,0.2-.06,0.25,0.08,0.23,0.23,0.17,0.32,0.12-.19-0.06-.82Zm31.06-8.2-0.35.18-0.25.24-0.1.29,0.19,0,0.63-.41,0.3-.22,0.47-.54-0.06-.21ZM484,405.44l-0.25.24-0.11-.07v-0.32l0.07-.43-1.82,1.3-0.41.49,1.49-.11,0.66-.18,0.35-.31,0.21-.28,0.06-.13v-0.2H484Zm-9.77,4.92,3-1.29,0.59-.54,0.51-.09,0.17-.09,0.17-.15v-0.28l-1.29.29Zm11.15-14.18,0.28,0.45v-0.23l-0.15-.39ZM447,358.44l0.11,0.21,0.11,0.3,0.24,0.12,0.53,0.07,0.22-.25,0.49-.87-0.15-.47-0.52-.2-0.51.09-0.41,0-0.38,0-0.09.41,0.08,0.27,0.1,0.11Zm-22.15-35.9-0.05-1.09-0.26-.23-0.13-.07h-0.2l0.52,2.13L425,324.2l0.55,1-0.16-1ZM329,177.49l-1,.62-1.63.85-0.31.39,2.28-.49,0.92-.51,0.41-.92-0.3-.1Zm80.09,112.75-1-1.82-0.4-.34-0.68-.33,0.18,0.56,0.49,0.79,0.29,0.35,0.34,0.71,1.73,2,0.71,0.55-0.15-.7Zm15.19,28.31-0.2-1-0.44-1-0.2-.31-0.12,0-0.24.28,0.38,0.83,0.13,2.21,0.34,1,0.3-1ZM392.45,208.89l-0.21-.28-0.29-.2-0.3.25,0,0.65L392,209.5l0.53-.25,0.29-.11-0.13-.07Zm-68.78-27.73-0.54.18-0.19.08-0.14.22-0.17.2-0.32.1-0.42.07-0.11.17,0,0.21-0.13.19-8.68,4.18-1.79.45-0.92.06-1.11-.68-0.66-.16,1.06,0.72,0.9,0.28h2.39l0.87-.26,2.48-1.43L317,185l4.06-1.74,2.42-1.89,0.93-.37v-0.19l0.33-.32,0.23-.11V180l-0.52.28Zm174.84,88.44,1.17,3.4,0.76,1.34,0.1,0.4,0.08,0.55L501,276.2l0.2,1.37,0.29,0.65,0.37,0.59,0.36,0.77,1.68,6.9,0.52,1.46,0.06,0.58,0.12,0.25,0.56,0.45,0.12,0.22,0.16,0.66,2.48,5.46,0.43,1.78,0.83,1,0.58,1.3-0.17-1.06-7-18.73-0.13-.73-0.08-.95-0.18-1-0.58-1.71L500,272.63l-0.83-1.88-0.32-1.87-0.12-.16-0.11-.09-0.07-.14v-0.23l-0.3.1-0.11.08-0.14.16ZM244.72,149.46l-1.41.37L243,149.5l-1,.41-4.39.59-1.78-.06-0.63.08-1.12.43-0.37.16-1,.32-2.9,0-2.39.84-4.72.8-3.31.07-0.75.28,2.25,0.29,27.7-3.53,0.44,0.21,0.46,0.07,0.41-.07,0.34-.21-3.89-.51Zm64,35,0.23-.23-0.09-.51-0.06-.05-0.52,0-0.54-.2-1-.16-0.59.5-0.76.06-1.68-.25,0.42,0.36,0.82,0.33,0.43,0.24,0.28,0.32,0.28,0.43,0.31,0.39,0.36,0.16,0.87,0.32H308l0.21-.47,0.1-.43,0.21-.42Zm122.9,147.85-0.78.07-1.35-.3-0.8-.34-0.63-.49-0.48-.7-0.35-.94-0.11-.51-0.16-.44-0.22-.36-0.36-.28,0.18,1.4,0.39,1.42,0.29,0.68,0.37,0.49,0.45,0.37,2.47,1.43,0.63,0.15,0.7-.23,1-.87,0.77-.17-1.7-.93Zm17.14,83.56-1.11.3-0.48,0-0.38-.33h-0.25l-0.19.27-0.09.25,0,0.23,0.23,0.23v0.28l-0.41.46-0.18.14,3.1-.88L448.9,416Zm-3.27,1.26-0.17-.17-0.22-.12H444.9l-0.83.72-0.31.16-0.44,0-0.43-.14-0.35.1-0.17.7,1.23-.17,0.61-.18,0.39-.27,0.17-.28,0.13-.33,0.17,0.26h0v-0.15l0-.1,0.1,0.23,0.11,0.18,0.14,0.12,0.23,0.07-0.06-.35Zm44.53-22.63,0.18-.12-0.11-.27-0.19.12Zm-36.79,17.43-0.13,0H453l-0.07-.06,0-.23h-0.25l-0.28.94,0.41,0,0.28,0.11,0.06,0.17-0.21.26v0.33l0.74-.06,0.43,0.24,0.13,0.43-0.19.6h-0.25l-0.22-.53-0.53-.35-1.2-.33,0.24,0.31,0.25,0.22,0.6,0.38-0.3.38-0.13.08-0.09.15-0.25.18-0.9.44-0.41-.24-0.47.18-0.8.68v0.3l2.91-.83,1.4-.58,1-.73V414l-1.4-1.63Zm0.32-54.26-0.28-.32-0.51-.05-0.11.38,0.1,0.27,0.2,0.2,0.25,0.13,0.06,0.4-0.09.69,0.12,0.18,0.37-.78,0.12-.35-0.1-.29-0.21-.23-0.08-.13,0,0Zm-23.87-35.36-0.79-.82-0.82-.3h-0.55l0.53,1.33,0.77,1.45,0.54,1.38-0.17,1.13,0.53,0.88,0.61,2.23,0.54,0.93,0.54,0.19,0-.79-0.29-2.32-0.32-.67-0.62-1-0.48-1,0.4-1.63Zm0.21,93.7-0.51-.16-0.46.12-0.11.13,0.23,0h0.22l0.27,0.16,0.34,0.18,0.33,0.64,0,0.24,0.11-.44-0.08-.48Zm-0.37,1.83,0,0.12,0.41-.12,0.21-.17-0.2,0Zm41.6-34.47,0.34,0.27,0.39,0.24,0.11-.44,0.1-.2,0-.2-0.11-.34-0.34-.06-0.47.11-0.16,0,0.09-.09-0.25-.08-0.24.24Zm-64-162.65,0.29,0.07,0.15-.1,0-.09-0.14,0-0.14-.11-0.21-.08h-0.23l-0.14.09,0.08,0.07,0.13,0ZM402,211.05v-0.23l-0.19-.12h-0.19l-0.22.11-0.07.33,0.14,0.17,0.27-.08Zm4.3,14.67,0.08,0.26,0.16,0.16,0,0.18-0.16.24,0,0.12,0.19,0.05H407l0.34-.29V226l-0.27-.35-0.33-.17-0.29,0ZM405,222.07l-0.07.24,0.19,0.11v-0.12Zm-0.48,3.21-0.14.08,0,0.14,0.13-.06Zm3.55,11.48,0.12-.06,0-.11-0.17-.31-0.36,0,0.21,0.14,0.13,0.2v0.08Zm-2.29-8.13,0.17,0,0.16-.1,0-.1-0.2-.05-0.21.16Zm-0.28-7-0.12,0,0,0.21,0.17-.16,0.11,0.09,0,0.1,0.28-.3-0.17-.15-0.17,0,0.11,0.12,0,0.06ZM405,224.06l0.09,0.13,0.34-.18h0.17l0.11,0.06,0.18,0.06L406,224l-0.13-.09-0.36-.11-0.35.08Zm1.59-2.23,0.49-.1,0.39,0.05,0.17,0v-0.1l-0.16-.14-0.2-.1h-0.2l-0.27.06-0.26.17Zm84.82,13.75-0.68-1.39-0.57,0-0.51.22-0.9.67-0.87.52-0.24.32-0.25.76-0.87,0L486.21,238l0.1,1.51,0.37,0.73,0.35,3.72,0.2,0.86,0.59,1,1.44,4.41,0.61,1.26-0.07-.69-0.3-.75-0.36-.91-0.08-.54,0-.44,0.19-.83,0.25-5.65,0.35-1.75,1.27-2.88Zm-83-14.49-0.4-.17-0.25.11,0.41,0.29,0,0.22,0.06,0.23V222l0.1,0.23,0.29,0.22,0.1-.14,0-.14-0.07-.11v-0.64Zm81.85,31.31,0.11,0.49,0.06,0.57h0.3l-0.12-.42-0.68-1.49Zm-82.44-19.63,0.14,0.1,0.11,0,0-.12,0-.17,0-.18-0.65-.05-0.06.05,0.2,0.06Zm-0.75-1.42-0.09-.31-0.08.1Zm0.46-1.79-0.16-.17,0,0.22,0.11,0.05Zm0.67-2.44-0.31-.08-0.34.13,0.09,0.21,0.73-.18Zm-1,.73-0.23-.07-0.24.11v0.17l0.15,0.08-0.11.05h-0.31v0.15l0.59,0.22v0.18l0.16,0.12h0.18l0.06,0,0.22-.34,0-.55-0.28-.12Zm65.24,156.49,0.16,0.59,0.31,0.53,0.32,0.12,0.29-.19,0.13-.29,0.36-.53-0.12-.48-0.2-.09-0.5-.11-0.53.08Zm22.2,4.94-0.15,0-0.06.17-0.19.06-0.12.17h0l0.3-.06Zm2.34,3.6-0.12-.61-0.17.43-0.3.24-0.06.18-0.09.05-0.1.16,0.1,0.14,0.52-.55Zm11.43-17.21-0.12.22-0.65,2.6-0.35.72-0.55.45,0.12,0h0.1l0.06,0.06,0.58-.54,0.55-1,0.39-1,0.16-1,0.07-.19,0.07-.36-0.06-.23Zm1.27-10.5-0.17.24-0.23.2-0.31.21v0.28l0.18,0.05,0.11,0.07,0.11,0.1,0.16,0.09-0.43.41-0.06.47,0.25,0.36,0.52,0,0.19-.29,0.08-2.51h-0.27Zm-17.33,25.48,0.14-.31-0.28-.17-0.3-.12-0.16.21,0.13,0.19Zm-2.54,2.25-0.21.06v0.12l0.17,0.18,0.06,0.25,0.12,0.06,0.07,0.14,0.1-.19V393.2l-0.12-.17Zm-11.51-6.31,0.15,0.28,0.07,0.65,0.07,0,0.16-.28,0.08-.38-0.21-.58-0.25-.28-0.24.27,0,0.34,0.08,0.06Zm26.29-4.1-1.1,1.6-0.54.34-1.3.32-0.26.28,0.14,0.51,0.33,0.24,0.3,0.3,0.1,0.65-0.39.94-1.5,1.62-0.78,2-1.84-.38-0.25.79,0.58-.23,0.47,0.17,0.23,0.42-0.16.53-0.32-.15H498.1v0.17l0.19,0.33-0.36.54-0.45.23-0.87.12,0.14,0.58-0.26.53-1,1.06-0.58,1-0.31.23-0.66.07-0.22.26L493.24,399l-0.47.2-0.61.14-0.39.24,0.21,0.49h0.8l0.93-.91,1.51-2,1.27-1.1,0.31-.46,0.37-1,0.27-.48,0.46,0.14,0.44-.25,3.32-3.27v-0.28l-0.18-.68,0.51-1.1,1.34-1.92,1.19-1.54,0.21-.45,0.08-.35,0.2-.53,0.27-.52,0.28-.29,0.17-.1,0.15-.13,0.13-.17,0.13-.25-0.89-.36Zm-13.67,18.22-1.29,1.57,0.41-.16,0.86-.87,0.34-.53v-0.1l0-.16ZM471.18,382l-0.24.12-0.13.21,0.3,0.1,1.45,0.1,0-.13-0.65-.11Zm2.4,1.79,0.37-.29-0.1-.17-0.71-.19-0.23.07-0.09.24,0.11,0.26,0.19,0.18ZM515,320.51l-0.24-1.42-0.55-.71V318l0.63-.66v-1.22l-1.06-4.35-0.27-.47-0.39-.3-0.9-.26-0.52-.24v-0.28l0.48-.23,0.48-.06,0.42-.14,0.29-.49-0.06-.54-0.77-1.66-0.84-2.47-1-2-0.12-.67-0.27-.72-1.14-.58-0.27-.59-1.54-1.72-0.32.05-0.92.29-0.35-.13-0.65-.41-0.29-.08-1-1.21-0.24-.39,0.54,0,0.35,0.18,0.25,0.26,0.27,0.22,0.92,0.47,1.63,0.42,0.47,0.41,0.36,0.92,0-.71-6-14.56-1.44-6.94-13.07-29-0.31-1.1-1.2-2.45L485.51,242l-0.37-.94-1-4.47L484,234.67l-0.16-.9-1.26-2.46,0.31-.29v-0.35l-0.46-1.12-0.67-4.22,0.8,0.35,1.36,1.27,1.76,0.64,0.12,0.82-0.31.94-0.35.7-0.3-.29-0.3.66-0.16.89v0.92l0.17,0.69,0.58,0.67,0.73,0.35,2.6,0.45h0.36l0.49-.16,0-.16,0-.67,0-.17h0.27l0.23,0.13,0.2,0.16,0.13,0.07,0.81-.07,0.55,0.2,0.36,0.45,0.25,0.7,0.3,1.83,0,1.83-1.23,5.84-0.09,7.94,0.39,1.94,1.22,3.66,2.41,4.39,0.39,1.6,1.22,1.43,0.17,0.32L497,266l1,1.92,0-2-3.28-5-0.86-2-0.13-.73-0.59-1.32-0.87-4.68L492,249.72l0.11-1-0.3-.31,0.29-.59,0-4.52,0.13-.24,0.32-.15,0.31-.35,0.22-.39,0.1-.25,0.37-.07,0.72-.85,0.51-1-0.61-.91-1-3-2.43-4.31-2.16-3.06L486.09,224l-5.5-8.76-0.22-.89-0.36-.84L479.3,213l-0.52-.53,0.23-.82-3.77-7-2.66-7.37-2.45-5.48-1.81-3.37-0.26-.85-0.18-1-0.06-.93-0.18-.88-1.24-2.19-0.57-2.8-0.41-.41-0.26-.51-0.23-2.31-0.21-.67,0.3-.35-0.41-.18-0.27-.26-0.07-.35,0.17-.44-0.23-.08-0.37-.19-0.23-.06,0.24-1.49L462.47,167l-0.25-3.56-0.18-.9L461.16,161l-0.36-.85L459.48,155l0-1.94,0.28-2.09-0.13-.45-0.29-.31-0.29-.25-0.12-.27,0.13-1.52-0.13-.6-0.22-.44-0.18-.17-0.2-.11-0.24-.25-0.2-.38-0.27-.72-0.25-.37-1.11-.92,0-.19-0.7-.26-0.31-.67-0.05-.84,0.1-.83,0-1.06,0.08-.4,0.36-.16,0.39,0.15,0.31,0.37,0.2,0.47,0.07,0.48,0,1.09,0.11,0.86,0.34,0.66,0.65,0.48L457.58,143l0.16-4,0.3-1.26,0.07-.81-0.21-.35-0.14-.11,0-.22-0.07-.22-0.32-.11L457,136l-0.57.23-0.25,0-1-.39,0-.37-0.3-.07-0.74-.2-1.32.4h-0.39l-1.69-.38-0.41-.18-0.55-.34h-0.29l-0.42.07-0.44,0-2-.59-0.6-.27-0.41-.25-0.27-.26-0.39-.28-0.58-.16-0.37,0-0.37,0L440,131.4l-0.56-.31-0.31-.24-0.6-.38-0.36-.08h-0.57l-0.57,0-0.31,0-0.35.1-0.2.18-0.11.19-0.06.3v0.1l0,0.32,0,0.22-0.13.22-0.17.15-0.37.07-0.34,0-0.42-.13-0.21.06-0.12.17-0.08.5L434,133l-0.12.22-0.48.48-0.12.18-0.08.21-0.06.22,0,0.46,0.13,1.17,0,0.27,0,0.3-0.29,1.07,0,0.27,0,0.55L433,138.8l0.13,0.44,0.19,0.42,0.78,1.11,0.18,0.36,0.06,0.23,0,0.47v0.54l-0.55,3.13L433,148.44l-0.11.61,0,0.29,0.08,1.36V151l-0.08.37-0.16.18-0.22.11-1.12.31h-0.18l-0.21,0-0.76-.24-0.27,0-1.89.22-0.39,0-0.29-.1-0.22-.14-0.15-.17-0.23-.41-0.61-1.75-0.08-.42v-0.23l0-.27,0.11-.56,0.2-.69,0-.25,0-.24,0-.22-0.06-.21-0.2-.42-0.18-.3-1-1.25-0.22-.38,0-.2v-0.2l0.07-.18L425,143l0.12-.3v-0.15l-0.09-.07-1.68-.11-1.5-.11-1.91-.13-2.3-.16-2.67-.18-3-.2-3.29-.23-3.55-.24-3.79-.27-4-.27-4.18-.29-4.32-.3-4.43-.3-4.52-.31-4.57-.32-4.59-.31-4.59-.31-4.54-.32-4.47-.3-4.37-.3-4.24-.29-4.07-.29-3.88-.26-3.66-.24-3.41-.24-3.12-.21-2.79-.2-2.46-.17-2.08-.13-1.68-.12-1.23-.08-0.76,0-0.26,0-1.29-.08-0.36.06-1.82-1.93L315,130.12l0-2-0.3-1.11-0.56-1.12-0.35-.35-0.33-1.42-0.23-.52-0.25-.25-0.71-.5-0.18-.22,0-.59,0.08-.16H206.59l-0.26.66,0.07,2.22-0.06.23-0.85,1.83-0.15.48-0.06.29,0,0.29,0.06,0.37,0.17,0.39,0.41,0.64,0.47,0.59,2,1.94,0.23,0.35,0.84,1.56,0.58,0.81,0.58,0.46,3.28,2,0.32,0.3,0.15,0.17,0,0.47,0,0.7L214,140.29l-0.32,1.23-0.7,1.26-0.15.41,0,0.2,0.1,0.76,0.76,2.25,0,0,0.69,0.4,0.29,0.23,0.35,0.14,0.82-.09,0.35,0.09,0.35,0.46,0.2,0.65,0,0.57-0.37.26-1,.22-0.76.58-1.19,1.45v0.32l0.49,0.35,0,0.47-0.3.48-0.47.36-0.49.12-1,0-0.49.19,0.72,0.25,0.7,0.36-1.51.21-0.47.15-0.36.25-0.25.28-0.28.24-0.47.19V156l0.44-.2,0.9-.25,0.34,0.11,0.7-.4,5.79-1.23,0.91-.41-0.15-.86,0.41-.14,1-.16,0.35-.2,0.15-.46L220,150.6l0.1-.45,0.76-.47,0.93-.07,0.79-.29,0.33-1.1,0.17,0.13,0,0,0.08,0.11h0.25l1-1.82,0.16-.58-0.18-.83-0.76-1.2-0.18-.58-0.15-1.5,0.15-.51,0.59-.09,0.47,0.29,0.22,0.48,0.29,0.41,0.7,0.11-0.08.21-0.1.56-0.08.21,0.89,0.12,0.35,0.68,0.13,0.83,0.28,0.62-0.23.65-0.07.77L227,147.9l0.62,0,0.41-.52,0.28-1.62,0.51-1.09,0.88-2.57,0.22-.34,0-.46-0.39-.84,0.87,0.51,0.45,1,0.42,0.63,0.77-.51,0.23,0.29,0,0.15,0,0.22-1.39.62-0.59.51-0.24.67,0.06,0.46,0.2,0.22,0.3,0.08h0.41l0.18,0.21,0.55,0.91,0.36,0.2,0.69,0.07,0.92,0.24,0.84,0.41,0.49,0.57-0.06.5-0.59-.19-0.76-.42-0.54-.22-2.65,2.17-0.73.13-2.23,0-2.46.66-1.53.72-0.34.08-0.25.21-0.17.52,2-.26,4.06-1.14,6.34-.86,2.29,0,1.16-.19,0.9-.45,0.87,0.36,3.31-.36,3.18,0.19,0.47-.34,0-.72,0.06-.2,0.95,0.14,0.51-.16,0.51-.69,0.36-.16,0.53,0,0.53-.17,0.48-.24,0.42-.32,0.09-.35-0.21-1.18,0-.56L252,145l0.41,0.45,0.39,0.07,0.28-.52,0.3-.24,0.4-.1,1,0-0.93,1.27-0.18.7,0.56,0.6,0.72,0.1,0.57-.35,0.51-.46,0.58-.23,0.8-.09,1.77-.47,0.78-.1,1.73,0.3,0.82-.06,0.66-.6,0.49,1.26,0.53,0.45,0.72-.16,1.06-.53,0,0.79-0.3.23-0.2.21,0.23,0.71,1.24,1.35,0,0.25,0.33,0.35,0,0.65-0.4.35-0.72-.55-0.41-.24-2-.56-1.11-.88-0.58-.36-0.56-.07-0.52.27,0.1,0.34,0.49,0.26,0.63,0.11,0.19,0.14-0.12.3-0.26.32-0.25.18L259.9,150l-0.45-.4-0.3-.53-0.17-.54,0,0,0-.07-0.2,0-0.23.48-0.21.65-0.3.55-0.5.24-2.68-.61-3.27-.11-0.65-.22,0,0.14v0.13l0,0.08,1.06,0.7,4.9,0.57,7,1.93,5.18,1.59,4.73,2.48,3.49,1.74,4.9,3.6,1,0.24-0.31-.45-0.25-.3,0.32-.09,0.52,0.54,0.32-.67-0.69-.63-0.75-.47-0.32-.58,0.62-.89-0.51-.51-0.39-.53-0.46-.42-0.75-.17-0.88.15-0.54.24h-0.46l-0.64-.53-0.29-.83,0.42-.62,0.75-.42,0.68-.19,1.29-.15,0.47-.33,0.47-.83,0.49,1,0.53,0.76,0.37,0.7v0.81l0.49,0.16,0.29-.37,0.29-.52,0.46-.27,0.57-.2,0.6-.36,0.47-.07,0.19,0.63,0.72-.49,1-1.7,0.4-.37,0.41,0.24,0.36,0.56,0.52,1.14-1-.05-1.59,1.89-1-.39-0.63.1-1.71,2.15-0.87.5,0.33,0.46,0.29,0.32,0.34,0.26,1.42,0.7,0.38,0.31,0.31,0.54,0.7-.19,0.94,0.37,0.89,0.59,0.55,0.48,0.09-.24,0.11-.19,0.07-.21v-0.32l0.76,0.3,0.63-.21,0.64-.33,0.77-.06v0.29l-0.59.51-0.16.72,0.29,0.42,0.73-.36,0.16,0.7-0.09,1.59,0.36,0.78,0.62,0.3,0.41-.4,0.49-1.06,0.36-.2,0,0.11V166l0.17,0.2,0.33,0,0.66,0,0.28,0.14,0.18,0.5-0.48.24-0.65.18-0.33.36-0.65.37-1.44-.59-1.44-1.06-0.65-1-0.71-.69-2.66-.82,0-.87-2.48-.44-0.32.1,0.35,0.54,2,2,0.54,0.25,5.2,4.27-0.81,0-1-.61-0.84-.86-0.46-.78h-0.32l0.1,0.43,0.11,0.31,0.16,0.28,0.2,0.29,1.2,1,4.67,2.19,0.67,0.55,0.73,0.76,0.58,0.86,0.24,0.87,0.29,0.68,1.3,1.7,0.38,1-0.18,3.29,0,0.54,0.14,0.19-0.29.43-0.47.43-0.39.22-0.57,0-0.31-.19L297,181.71l-0.45-1-0.29-1.06-0.11-1.07,0.11-3.23-0.11-.46-0.62,1,0.12,2.4,0.78,3.93,0.37,0.67,0.68,0.71,0.8,0.38,1.55-.7,0.9,0,1,0.17,0.88,0,4.76-1.55,1.65-.07,3.24,0.35,0.54-.31,0.82-1.25,1-.15,0.71-1.19,0.54-.3,0.63-.24,0.53-.43,0.54-.26,0.66,0.31-1.21,2-0.18.38,0.19,0.83,0.46-.16,0.59-.52,0.55-.3,0.8-.17,0.65-.39,1-.75,0.63-.19,1.1-.14,0.51-.28,2.06-2,1.23-.88,2-.56,1.69-1.39,2.23-1.3,0.46,0.48,0.67-.06,0.77-.26,0.8-.16,1.68,0.16,1.53,0.51v0.29l-0.17.17-0.39.51,1.16-.7,0.53-1.09-0.29-1-1.27-.44-2.52-.33-0.38-.24L335,170l-0.15-.45-0.66,0,0.52-.73,0.61,0.19,0.79,0.52,1.37,0.41,1,0.43,0.57,0.11,0.09-.19-0.82-1-0.26-.42L338,169l-0.3.31-0.11.18-0.18-.43-0.12-.24,0.11-.37,0.06-.11,0-.1-0.15-.39,0.3-.35,0.16,0.14,0.11,0.07,0.27,0.13v-0.74l0.27-.39,1.46-.81,0.48-.1,1.29,0.08,0.06-.21,0.24-.49,0.34-.53,0.36-.33h0.22l0.2,0.11,0.13,0.12,0,0.07h0.84l0.24-.11,0.23-.43,0.26-.1,0.25,0,0.11,0.12,0.07,0.12,0.12,0.06,0.32,0.27,0.18,0.57,0.21,0.41,0.41-.17,0.84-.54,2.94-.25,1.31-.55,0.8-.08,3,2.46,3.84,2.44,1.83,0.79,1-.2,0.87,1,0.5,0.42,0.71,0.17,0.5,0.28,1.78,1.36,0.38,0.46,0.35,0.59,1.53,1.62,0.35,1,0.18,0.25,0.39,0.23,0.39,0.29,0.17,0.49,0.21,1.11,0,0.48,0.25,0.78,0.61,0.9,0.73,0.82,0.66,0.57,1.4,0.64,0.28,0.22,0.48,0.47,0.35,0.26,0.83,0.34,0.8,0.13,0.7,0.21,0.48,0.59,0.17,1-0.06,1.08-0.27.93-0.43.53,0.24,0.46,0.19,0.67,0,0.66-0.21.43,1,0.77,0.53,0.26,0.41-.06,2.07,2.46,1.12,0.91,1-.17,0.84,0.71,0.7,0.76,1.25,1.71,0.7,1.38,0.11,0.08,0.06,1,0.1,0.47,0.14,0.3,0.38,0.42,0.65,0.41,0.73,0.31,0.63,0.13,0.58,0.25,0.37,0.59,0.28,0.65,0.3,0.41-0.47.44,0,0.43,0.32,0.31,0.59,0.12,0.21,0.26,0,0.54,0.18,0.54,0.69,0.25,0.53,0,0.27,0,0.72-.27,0.61-.11,1.15,0,0.47-.15,0.72,0.46,0.9,0.37,0.94,0,0.81-.58,0.18,0.26,0.47,0.46,0.18,0.25,0.32-.22,0.82-.41v0.93l0.1,0.72,0.32,0.54,0.7,0.38-0.87.53,0.46,0.79,1.52,1.21,0,0.2v1.4l-0.12.46-0.2.48,0.23,0.37,0.48,0.22,0.48,0-0.27.93,0.22,0.81,1.71,2.13,0.29,0.24,0.31,0.12,0.78,0.11,0.28,0.12,0.43,0.6,0.11,0.67-0.3,2.24,0,0.49,0.3,1.37-1-1.28-0.65-.37-0.57.71,0.11,0.41,0.81,1,0.21,0.61,0.13,0.17h0.28l0.29,0.08,0.13,0.38V229l0.09,0.45,0.12,0.33,0,0.31-0.33.45-0.15.34,0,0.41,0.12,0.4,0.15,0.31-0.41.81-0.14,4-0.43,1.39-0.08.54-0.05,2.49-0.89,1.55,0,0.34v0.29l-0.48.55-1.47,3.89,0.29-.09,0.12-.07,0.16-.15,0.08,0.6-0.34.65L404.36,250l-0.31,1.3-0.25.62-0.54.6-0.39-.25-0.18.61,0,0.9,0,0.63,0.22,1.16,0.24,0.7,0.39,0.66-0.37.41-0.11.57L403,259.14l-0.89,4.2-1.36,3.7-0.2-.66,0.08-.81,0.3-.78,0.39-.6-0.42.41-0.46.65L400,266l-0.16.84,0.08,0.89,0.39,1.31,0.09,0.61,0.57,1.07,2.5,2.46,0.56,1.51,0.12,0.76,0.33,1,0.46,0.82,0.52,0.11,0-.58-0.28-1-0.6-1.58-0.48-.83-2.43-2.65-0.32-.64,0.15-.64,0.77,0.77,1.59,1.27,0.72,0.84,0.73,1.11,0.49,0.31,0.88,0.12,0.07,0.2,0,1,0.09,0.39,0.23,0.2,0.28,0.08h0.75l0.66-.28,0.46-.67,0.14-.83-0.29-.74,0.51-1.41,0.05-.3,0.12-.24,0.55-.7,0.17-.46v-0.55l-0.21-1-0.06-.54,1.3-.79,0.36-.29-1.75.22-1.57-.62-1.52-.88-1.56-.64,0.65-.77,1.88-.53,0.51-.58H407l-0.37-.1v-0.22l0.24-.33,0-.21,0.2-.5,0.05-.37-0.07-.32-0.35-.72-0.11-.4,1.65,1.61V261h0.25l0.34,0.49,0.5,0.43,1.13,0.63v0.33l-0.84.31v0.35l1.29,0,1.07,0.23,0.73,0.59,0.26,1.18-0.26,2.21,0.06,1.15,0.51,0.88,0.36,0.1L415.1,270l0.19-.46-0.07-.47-0.25-.65,0.05-1.69,0.17-.73,0.36-.54,0.84-.48,0.71,0.08,0.49,0.55,0.37,1.9,0.8,1.92,0.12,1-0.34.7-1.32,1.48-0.29.46-1.14.8-0.2.31L415,275.52l-0.28.19-0.37.12-0.32.24-0.14.53-0.12.36-1.13.9-0.54.94-0.29,1-0.39.83-0.88.59,0.17,0.44,0.11,0.17-0.48.57,0.52-.23,0.65-.1-0.25.55-0.56.41-1.19.32-0.64.34,0.59,0.12,0.49,0.18,0.44,0.27,0.42,0.36-0.87.06-1.06-.54-1-.3-0.71.79,0.25,0.29,0.28,0.21,0.3,0,0.29-.19h0.25l0,0.45-0.08.41-0.19.38-0.29.31-0.46-.46-1.07-.51-0.42-.31-0.21-.36-0.63-1.51h-0.28l0.14,0.72,0.78,2.07,0.47,0.67,0.64,0.27,1.51,0.27,1.58,1.18,0.77,0.4,0.58,0.6,0.45,2.21,0.85,1.75,0,1.14h-0.28l-0.13-.28-0.13-.13-0.15-.08-0.18-.15v1l0.51,0.89,0.68,0.9,0.48,1h0.3v-0.62l0.42,0.3,0.28,0.49,0.15,0.65v0.77l-0.22-.23-0.14-.23-0.19-.51,0.23,1,1,1.89,0.41,1.62,3.7,7.37,0.27,0.9,0.17,0.17,0.21,0.16,0.49,0.3-0.19-.7L419.84,310l-0.13-.71,1.11,1.21,1.19,3.89,1.21,0.83h0.37l0.29,0.06,0.58,0.2,0.32,0.21,0.39,0.37,0.28,0.08,0.24-.05,0.12-.11,0.07-.1,0.13,0,0.2,0.1,0.39,0.45,0.13,0.09,0.25-.17,0.3-.34,0.24-.31,0-.17,0.35,0.5,0.14,1.29,0.36-.19,0.27-.6,0-.68-0.36-2-0.65-1.68-0.21-.35-0.25-.29-0.57-1.41-0.44-.5-0.3.33-0.45-.41L424.23,308l-0.48-.85-0.12-.37,0.84,0.42,0.46,0.51,0.81,1.38,0.6,0.16,0.67-.36,0.41-.13-0.14.79,0.75,0.87,0.44,0.39,0.19-.15,0.24-.43,0.51-.08,0.49-.16,0.18-.72,0.94,0.26,0.73-.15,0.7-.29,1.66-.35L435,308l0.69-.22-0.51,1.4-0.23.32-0.38.21-0.9.19-2,1.22-0.8.61-0.06.59,0.83,0.7,0.55,0.28,0.3,0.42,0.1,1.11-0.08,1-1,5.28,0,1,0.19,0.7,0.71,1.62,0.2,0.82-0.06,1.06-0.21.67-0.07.55,0.34,0.79L433.2,329h0.51l0.57-.35,0.82-.35v0.64l0.4-.19,1-.28,0.33-.17,0.17-.24,1.23-3.53,0.45-.73,1.34-1.43,0.79-.65,0.67-.27,0.77-.11,1-.58,0.6-.24-0.17.55-0.21.41-0.31.33-0.41.3-0.42-.24-0.46.19-0.36.39-0.16.42-1.78,1.77-0.47.59,0.17,1.15-0.77,1.23-1.09,1.06-1.11.75-0.18.21-0.18.17-0.31.07-0.29-.13-0.28-.51h-0.17l-0.24.41-0.11.66V331l0.1,0.45,0.25-.33,0.23,0.23,0.12,0,0.54-.27,2.22,1.24h0.83l0.19,0.12,0.18,0.22,0.28,0.12,0.19-.12,0.17-.39-0.15-1.13v-0.66l0.28,0.7,0.82,1.44,0.29,0.67,0.2,0.89,0.07,2.82H441v-0.3H440.7l0.14,0.74,1.22,2.23,0,0.14v0.3l-0.25,1.55,0.35,3.54,0.73,3.24h0.3l0-.49v-0.48l0.1-.45,0.17-.42,0.7,3.24,0.65,1.15L446,351.9l-0.35.42,0.11,0.55,0.39,0.52,0.44,0.35,0.39,0.09,0.93-.12,0.6,0-0.13.53-0.31.61-0.4.5-0.37.22-0.46-.24-0.46-.47-0.48-.3-0.57.24,0.27,1.32,0.16,0.35,0.4,0.47,0.15,0.1,0.29,0h0.25l0-.31,0.23-.2,0.09-.1,0.15-.33,0.13-.25,0.28,0.39,0.41,0.23,0.48,0.09,0.51-.11,0.39-.25,0.3-.63,0.41-.33,0.23,0.53,0.39,0.36,0.46,0.17,0.34-.11,0.07,0.29,0.1,0.11v0.13l-0.17.34,0.33-.13,0.47-.39,0.17-.09,0.36,0.1L453.5,357l0.84,0.36,0.47,0.46,0.43,0.2,0.54-.58,0.42,0.38,0.53,0.74,0.47,0.39,0.5,0.21,1.2,0.21,0.53,0.21,1,0.7,1,0.87,0.77,1.2,0.31,0.35-1.07.82L461,364l0.51,0.23,0.18,0.25,0.49,1.2,0.26,0.39,0.35,0.06,1.37,0.1,0,0.82,0.14,0.51,0.34,0.36v0.63l0.85,1.55,0.42,2,0.16,0.43,0.48,0.2,0.92-.23,0.39,0.19L468,373l-0.16.35-0.24.29-0.76.5,0.45,0.9,1.33,1.48,0.58,1.73,0,0.43,0.22,0.93,0,0.48,0.32,0.47,1.88,1.51,1.56,0.3,0.23,0.11,0.71,0.44,1.43,0.24,0.75,0.4L478.7,386l0.27,0.79-0.41,1-0.71.53-0.88.24-0.89,0-0.72-.3V388l0.23-.07,0.39-.2,0.23-.07v-0.31L473.08,386l-0.53-.37-0.13,0-0.71-1.37-0.28-.36-0.41-.41-0.48-.33-0.49-.09,0.25-.65-0.76.6-0.67,1.48-0.44,1.76-0.06,1.4,0.47,1.37,0.67,1.4,1.92,1.85,0.64,0.14L474,392l1.64-.16,1.32-.29,1.56,0,0.76-.14,0.94-1,0.17-.06,1.15-.74,0.6,0.57,1.22,0.25-0.15.36V391l0.36,0.13,0.19,0,0.13-.13,0.15-.37,0.21,0.25,0.22,0.15,0.2,0.11,0.2,0.13,0-.21L485,391l0.09-.12,0.1-.18,0.4,0.48,0.65,0.23,0.69,0,0.5-.1,0.8-.77,0.53-.24,0.61,0.38h0.25l0.24-.37,0-.28-0.14-.29-0.07-.42,0.23-.15,1.49-.32-0.07.19,0,0h-0.06l-0.12.1,0.64,0.23,0.36-.66,0.29-1,0.39-.72,0.62-.21,1.64,0,0.53-.07,0.15,0.29,0,0.13,0.05,0.19-0.36.08-0.2.1-0.11.18-0.16.29,0.28,0.14,0.23,0.19,0.18,0.26,0.13,0.3,0.7-.45,0.8,0.11,0.62,0.57,0.13,1h0.3l-0.13-.9-0.49-.71-0.74-.41L496,388l0.5-.58,0.81-.38,0.63,0v0.68l0.55,0.2,0.81,1.16,0.61,0.51v-0.43l-0.52-.51-0.49-.67,0.11-.89,0-.49,0.7-.8,0.14-.41L500,385l0.19-.34,1.84-2.1,1.48-1.3,0.06-.55-0.3-.36L502.8,380l-0.32-.36,0.3-.84,0.33-.63-0.16-.24-0.29-.18-0.18-.25-0.13-1,0.07-.83,0.35-.82,0.67-.95,0.26-.77,0-2.2,0.15-.87,1.19-1.17,0.84-1.93,0.07-1.08,0.15-.43,0.45-.4L507,365h0.4l0.42-.17,0.6-.85,0-1.89,0.51-1.2,0.25-1.62,1.47-1.92,0.33,0,0.13,0.6,0,1.17-0.27,2V363h0.27l0.65-13.25-0.65-1v-0.34l0.68-.52,0.39-1.35,1-6.67-0.13-1,0.25-.67,0.07-.76,0-1.55,0.09-.69,0.41-1.37,0.33-6.15,0.64-.09,0.23-1.31Zm-24.58,72.3,0.06-.43-0.17-.55,0-.09-0.15.14-0.05.46,0.16,0.49h0.18Zm-13.93-6.15,0.25-.19,0.27,0-0.25-.33-0.23,0v0.07l0,0.08,0,0-0.18.22Zm0.75,1.27,0.38,0.11h0.06l0-.34,0.32-.15,0.19-.12-0.08-.07,0-.17-0.28-.08-0.23,0,0.11,0.14-0.11.21ZM409.71,282.19l-0.11.14-0.2.39,0.75-.32-0.29-.17Zm0.51,0.24,0.07-.09-0.13.05ZM399.1,414.67l0-.08,0-.17Zm-2-.28,0.18-.12-0.13-.13Zm2.34,0.11v-0.16l-0.05.13Zm0.59-.92v0l-0.08.05,0,0.06v0l0.06,0,0-.09v0Zm-0.46,1.1,0.07-.11-0.08,0v0.13Z" transform="translate(-204.99 -121.63)"/><path class="cls-2" d="M342.38,136a5,5,0,0,0-5,5,5,5,0,0,0,.79,2.66l3.82,5.35a0.48,0.48,0,0,0,.39.29h0a0.47,0.47,0,0,0,.39-0.29l3.82-5.34a5,5,0,0,0,.79-2.66A5,5,0,0,0,342.38,136Z" transform="translate(-204.99 -121.63)"/><circle class="cls-3" cx="137.39" cy="19.4" r="2"/></svg>