<svg id="Iowa" xmlns="http://www.w3.org/2000/svg" viewBox="0 0 347.81 223.95"><defs><style>.cls-1{fill:#e9efb6;stroke:#bdd142;stroke-linecap:round;stroke-linejoin:round;stroke-width:0.25px;}.cls-2{fill:#e83d3d;}</style></defs><title>iowa</title><path class="cls-1" d="M531.89,260.63V259.5l-0.08-.84-0.37-.52-0.82-.17-0.51-.34L528.78,256l-0.55-.54-4.56-2.78-0.73-.16-0.72-.39-1.14-1.69-1.75-1.06-0.49-1.66-0.13-4.11v0.5l-0.95-2.45L516.1,240l-4.6-3-1.7-1.48-0.8-1-0.82-.81-1.63-.9-0.66-1,0.7-1.58,0.67-1.54,0.13-.82-0.45-1.11-1.34-2.07-0.44-.82-1-2.94-0.84-1.09-1.26-.42-1.25-.2-2.45-.94-9.14-1.8-2.34-1.07-1.21-.93-0.66-.94-1.82-3.62-0.21-1.35-0.16-3.09-0.32-1.31-0.52-1-1.53-1.92-0.58-1.23-0.27-1.61L479.5,195l-0.26-.82-0.09-.89,0-2.68-0.41-2.48L478.42,183l0.6-2.55,2.84-4,1-2.25-0.09-2.73-1.31-1.65-4.62-1.9-0.62-.51-0.41-.77-0.24-2-0.17-.78-0.27-.73-0.74-1.49-0.27-.81L474,160l0-.91,0.08-.93,0-.1H213.48c-8.46,0-16.92,0-25.38.09l-0.19.18,0.13,0.5,0.17,0.4,0.13,0.46,0,0.53-0.12.81,0,0.66,0,0.61,0.27,0.69,0.26,0.41,1,1.12,0.42,0.59,0.91,1.07,0.21,0.29,0.13,0.78,0,3.78-0.17,1.8-0.15.26-0.2.25-0.29.18-0.38.08-0.77-.1-0.36.05-0.14.34,0,0.5,0.45,0.79,0.39,0.32,0.3,0.31,0.07,0.27-0.16.26-0.47.54-0.17.32-0.07.39,0.1,0.4,0.33,0.38,0.41,0.16,0.44,0,0.84,0,1.22,0.22H193l0.55-.07,0.35,0,0.3,0.16,0.22,0.27,0.14,0.35,0.17,0.79,0.46,3.18,0.16,0.73,0.16,0.55,0.06,0.47v0.58L195,188.78l-0.21.51-0.22.4-1.79,1.74-0.1.34v0.4l0.22,0.42,0.19,0.27,0.09,0.22,0,0.34-0.12.51-0.35,1-0.24.36,0,0.09,0,0.18,0,0.26,0.08,1.43-0.21.84-0.2.46-1,1.12-0.07.17-0.08.5-0.11,2-0.13.57-0.11.32-0.19.17-0.25.27-0.11.32-0.09.44,0,1-0.08.4-0.13.28-0.2.11-0.84.36-0.19.13-0.21.2-0.2.27-0.17.32-0.13.37-0.11.41-0.14.38-0.16.32-0.82,1.22-0.46,1-0.22.69-0.14,1,0.13,0.59,0.27,0.76,0.85,1.32,0.49,0.6,0.43,0.41,2.86,2.16,0.47,0.47,0.42,0.51,0.16,0.28,0.06,0.29-0.17.32-0.58.49-0.07.09-0.16.29,0,0.19L191,221.8l0.93,0.55,0.25,0.2,0.22,0.25,0.19,0.29,0.35,0.67,0.16,0.42,0.08,0.43,0,0.59,0,0.45,0.26,0.4,0.3,0.2,0.38,0.88,0,2.55,2.37,0.4,1.28,0.45,0.91,0.71,0.75,3-0.73,3.18-0.27,3.05,1.8,2.2,0.06,1.17,0.76,0.64,0.57,0.95,0.32,1.22,0.1,1.67-0.26,1.39-0.44,1.2-0.19,1.33,0.49,1.75,0.76,1.12,1.8,1.22,0.95,0.87,0.59,1.23,0.09,1.36,0,1.48,0.21,1.59,1.5,2.07,2.23,1.35,1.94,1.6,0.61,2.85-0.19.7-0.52,1.4-0.06.84,0.2,0.64,0.85,1.89,0.24,0.4L216,280l0.52,1.64L216.31,283l-0.47,1.29-0.26,1.36,0.07,1,0.07,0.4-0.15.33-0.55.74-0.35.58-0.14.55,0,3,0.16,1.59,0.4,1.29,0.74,0.53v0.62l-0.32,1.4,0.08,1.49,1.12,0.86,0.67-.08,1.06-.69,0.46-.17,0.63,0.22,0.68,0.49,0.42,0.48-0.08.22-0.27.35-0.32.8-0.23.91-0.11.67,0.32,0.86,0.74,0.45,2.19,0.5,0.45,0,0.34,0.18L224,306l-0.52,2.92v0.81l-1.27,4.53,0.87,0.49,2.42,0.83,0.93,0.14,0.51,0.64-0.79,1.39L225,319l-0.58.34-0.41,3,0,1.16,0.73,0.89,2.4,0.79,0.67,0.57-1.25.62,0.27,1.07,0.13,2.26,0.33,1-0.75,2-0.32.47v0.44l0.24,0.16,0.11,0.21,0.09,0.28,0.22,0.36,0.28,0.54-0.19.37-0.32.38-0.11.59,0.27,0.83,0.45,0.53,0.95,0.83,0.36,0.73v0.68l-0.22,1.48,0.11,0.94,0.66,1.74,0.16,1.75-0.3,1.34-0.41,1.31-0.22,1.65,0.13,0.84,0.52,1,0.13,0.59-1.1,1.7-0.76.79-0.24.39-0.16.74,0,1,0.27,0.56,0.32,0.47,0.14,0.67,0.59,1.16,2.81,1.21,1,0.72,0.52,1.53,0,1.54-0.19,1.16h2.26l26.67-.2,26.72-.21,26.76-.21,26.8-.21,26.83-.2,26.82-.21,26.84-.21c8.73-.07,17.47-0.19,26.2-0.19l0.46,1,0.22,0.36,1,0.67,0.22,0.42,0,0.91,0.11,0.68,0.24,0.53,0.38,0.5,0.51,0.33,1.15,0.29,1.26,0.85,0.11,0.27,0.24,1,0.22,0.41,0.23,0.2,0.27,0.07,0.59,0,0.33,0.14,0.14,0.32,0.09,0.39,0.16,0.35,0.47,0.38,1.08,0.48,0.46,0.33,0.33,0.48,0.16,0.49,0,0.48-0.14.47,0.46,0.67,1.94,2,0.66,0.48,1.55,0.61,0.56,0.57,3.16-.94,0.49-.72-0.08-1-0.3-1.86,0-1.2,0.33-2.16,0-1.24-0.49-1.15-1.44-1.33-0.21-.6,0.11-.69,0.51-.74,0.11-.49,0.95-1.22,2.15-1.34,2.4-1.08,1.64-.45,2.14-.22,2.12-.74,1.87-1.35,1.37-2,1-2.83,0.33-1.54,0.18-3.1,0.24-1.12,0.55-1.08,0.94-1.39,5.3-6.17,0.95-2.54,0.21-3.32L490,332.84,489.06,330l-1.53-2.17-2.7-2.12-0.76-.3-1.09-.63-0.62-1.5-0.27-1.77,0-1.46,0.44-3.06,0.82-3.09,1.12-2.8,1.26-2.18,2.12-1.43,15.35-1.25,2.29-.77,1.1-1,2-2.44,1.12-.48,5.32-1,2.24-.89,1-.76,0.41-1,0.49-.46,2.36-1.36,0.81-.86,0.27-.75,0.11-.75,0-1.69-0.11-.41-0.19-.32-0.09-.32,0.77-1.41,0.21-1.55,0.52-1.59,0.71-1.43,0.74-1.08,0.76-.77,2.24-1.8,0.87-.36,0.95-.64,0.68-1.52,0.76-3.21,0.39-4.41,0.93-2.51,0.29-3,0.2-.85-1.31-3.2Z" transform="translate(-185.69 -157.94)"/><polygon class="cls-2" points="162.08 129.33 164.38 136.41 171.82 136.41 165.8 140.78 168.1 147.86 162.08 143.49 156.06 147.86 158.36 140.78 152.34 136.41 159.78 136.41 162.08 129.33"/></svg>