<svg id="Nevada" xmlns="http://www.w3.org/2000/svg" viewBox="0 0 216.49 323.71"><defs><style>.cls-1{fill:#e9efb6;stroke:#bdd142;stroke-linecap:round;stroke-linejoin:round;stroke-width:0.25px;}.cls-2{fill:#e83d3d;}</style></defs><title>nevada</title><path class="cls-1" d="M468,293.09q0-13.12,0-26.25,0-12.69,0-25.39,0-13.93,0-27.85,0-12.67,0-25.34,0-13.5,0-27,0-13.08,0-26.15,0-13.28,0-26.57H251.82q0,4.82,0,9.65,0,13.22,0,26.44t0,26.54q0,13.19,0,26.38t0,26.65c0,9,0,18,0,27l8.5,7.59q9.54,8.52,19.11,17,10.49,9.3,21,18.59,9.67,8.55,19.37,17.07,7,6.62,14,13.23,9.71,9.13,19.43,18.25,9.87,9.24,19.76,18.47,8.39,8.18,16.8,16.33,9.11,8.83,18.24,17.64c6.23,6,12.41,12.08,18.72,18q10,9.33,19.92,18.64l0-.52-0.35-1.43,0.85-1.11,0.14-.42-0.14-.61-0.68-.79-0.17-.41,0.12-.6,0.37-.17h0.49l0.51-.11,0.43-.21,0.15-.14,0.34-1.76,0-.94L448.59,421l-0.47-2.11L448,417.75l0.05-1.19-0.36-1-1.15-2.32-0.67-2.13-0.61-1.78,0.77-2.15-0.22-1.93,0.28-1-0.24-.72-1.27-3.23-0.18-.9-0.11-1.22,0-2.47,0.2-.66,0.63-1.13,0.14-.49-0.08-.51-0.23-.4-1.43-1.86-0.53-1-0.37-1.19-0.06-1.24,0.62-.63,0.16-.49,0-.5-0.12-1V384l0.05-.38,0.11-.2,0.25-.37,0.14-.15,0.16-.15,1.21-.57,1.18-.74,2.11-.55,0.57-.23,0.3-.08,0.34,0,1.94,0.58,0.14,0.05L452,381.4l0.31,0.25,0.38,0.24,0.48,0.16,0.28,0h0.27l0.25,0,0.21-.08,0.93-.57,0.19-.08,0.22-.07,0.24,0H456l0.24,0,0.33,0.13,0.33,0.19L457.3,382l0.35,0.45,0.27,0.43,0.81,1.82,0.35,0.55,0.45,0.56,0.68,0.59,0.83,0.37,0.94,0.05,1.78-.29,1.26-.72,1.44-5,0.68-.92,0.73-1,0.09-.44,0-.43q0-2.73,0-5.45,0-13.2,0-26.4c0-8.47,0-16.95,0-25.42Q468,306.89,468,293.09Z" transform="translate(-251.69 -108.42)"/><polygon class="cls-2" points="9.42 128.53 10.97 133.31 15.99 133.31 11.93 136.26 13.48 141.03 9.42 138.08 5.36 141.03 6.91 136.26 2.85 133.31 7.87 133.31 9.42 128.53"/></svg>