<svg id="New_Hampshire" data-name="New Hampshire" xmlns="http://www.w3.org/2000/svg" viewBox="0 0 106.38 207.02"><defs><style>.cls-1{fill:#e9efb6;stroke:#bdd142;stroke-linecap:round;stroke-linejoin:round;stroke-width:0.25px;}.cls-2{fill:#e83d3d;}.cls-3{fill:#fff;}</style></defs><title>new-hampshire</title><path class="cls-1" d="M411.52,345.08l-1.25.35,0.59-1.93-3.59-4.14-1.06-1.94-0.05-.47,0.08-.87,0.58-2.37,0.07-.62,0-.69-0.2-1.12-0.27-.57L406,330.3l-2.21-1.47-3.61-5.43-1.77-2.06-0.39-.65-0.3-.65-0.24-.89-0.07-.61,0-.55,0.09-.46,0.56-1.93,0.17-.87-0.07-1.32L398,312.26l0-.69,0.05-.49,0.1-.38,0.15-1.12,0-1.19,0.27-2.45c-0.16-2.7-.29-5.41-0.44-8.12q-0.71-13.48-1.43-27-0.73-13.18-1.38-26.36c-0.43-8.64-.9-17.27-1.35-25.91s-0.88-17.33-1.36-26-0.89-17.36-1.34-26h-0.07l-0.55.26L389.78,168,388,170.78l-1.08.54-1.42-.22-1.39-.51-4.8-3-1-.15-1.3.44-1,.85-1.67,2.24-0.78.75-2.52.65-0.58.54,1.5,0.79,0.92,1-0.37,1.52L370.85,179l-0.26.84-0.3,1.52-0.3.85-2.34,3.6-0.42,1.1-0.11,1.28,0.14,1.89h0l-1,.36-0.58.77-0.2,2.12,0.43,1.88,0.78,1.23,0.49,1.26-0.51,2q-2.64,3.77-5.26,7.54l-1.41,2.9-0.23,2,0.57,1.28,0.8,1.1,0.4,1.44,0.22,1.16,1.78,4.62,0.71,1.12,0.38,0.83,0,0.79-0.56.81-0.69.14h-0.71l-0.58.39-0.41,1.55,0.19,1.43-0.05,1.4-1.1,1.44-2,1.64-1,1.74-0.51.71-1.49.62-5,3.19-0.92.84-1.9,2.45-1.08.76-1.39.23-2.79-.13-2.93.57-2.1,1.71-1.28,2.87L336,252.95l0,7L335.75,263l-0.84,2.54L332.46,270l-0.34,1.26,0.26,0.66,0.49,0.5,0.37,0.45-0.12.59-3.75,5.37-0.85,1.65-0.34,1.66-0.12,1.74-0.34,1.71-0.47,1.55-0.61,1.26-3,2.8-0.73,1-1.55,1.26-0.36.82-0.21,2.76-0.51,3.28-0.46,1.56L319,303.24l-2,1.93-0.59,1.13-0.34,2.07-0.43,13.43,0.22,3-0.13,1.78L315.06,328l-0.59.71-0.44.71-0.27.8-0.08,1,0.05,0.22,0.13,0.15,0.13,0.23,0.07,0.46-0.12.46-0.27.39-0.39.43-0.36,3.21v1l0.36,2-0.15,1.78-1,4.4-0.24,3.58-0.54,1.29-1.39.51-1,.56-0.39,1.37-0.4,3.39-0.44,1.11-0.4.82-0.29.91,0,1.41,0.12,1.21,0.21,0.88,0.34,0.77,0.49,0.86,2.45,2.55,1.12,1.61,0.37,2.26v0h0.12l13.94,0.46q13.31,0.42,26.61.89c8.61,0.3,17.22.54,25.83,0.86l0.58-.1,0.46-.22,0.85-.64,0.83-.83,0.77-1,0.44-.3,0.59-.26,1.12-.34,0.67-.32,0.59-.66,0.24-.53,0.52-1.46,0.44-.83,0.24-.36,0.53-.65,0.3-.27,0.31-.21,0.46-.18,0.58-.09,1,0.05,0.66,0.13h0.64l0.54-.18,0.75-.55,0.42-.43,0.85-1,0.29-.28,0.63-.45,5.57-2.48,0.53,0,0.68,0.12,1.93,0.83,1.2,0.31,2-.52,0.13-1.24,0.51-1.61L408.7,354l3.06-4.86,0.5-1.28,0.23-.35,0.43-1,0.23-1.07-0.3-.49Z" transform="translate(-306.89 -166.44)"/><path class="cls-2" d="M366,321.11a5,5,0,0,0-5,5,5,5,0,0,0,.79,2.66l3.82,5.35a0.48,0.48,0,0,0,.39.29h0a0.47,0.47,0,0,0,.39-0.29l3.82-5.34a5,5,0,0,0,.79-2.66A5,5,0,0,0,366,321.11Z" transform="translate(-306.89 -166.44)"/><circle class="cls-3" cx="59.1" cy="159.67" r="2"/></svg>