<svg id="Ohio" xmlns="http://www.w3.org/2000/svg" viewBox="0 0 215.87 234.17"><defs><style>.cls-1{fill:#e9efb6;stroke:#bdd142;stroke-linecap:round;stroke-linejoin:round;stroke-width:0.25px;}.cls-2{fill:#e83d3d;}.cls-3{fill:#fff;}</style></defs><title>ohio</title><path class="cls-1" d="M451.67,159l-1.94.28-0.92.28-0.41.34-0.62.79-0.3.26-1.8.38-1.27.82-3.45.64-16.15,7.77-16.23,13.84-1.84.59L405,186l-1.2.13-1.61-.84-0.44-.11-0.56.27-1,.9-0.65.19-1.27-.06-6-1.45-2.15,0L383.48,187l-3.89,2.17-2.17.63-3.45.14-0.83.5-0.71.68-2.24,1.44-1,.37-2.33-.13-2.09-1.05-3.5-2.86-0.47-.3-0.89-.4-0.36-.25-0.46-.61-0.36-.56-0.35-.42-0.54-.19,0.65,1.44,2.1,1.87,1,1.2-2.41-1.75-1.33-.69-1.26-.28-0.59.07-0.78.31-0.48.08-0.68-.07-0.38-.19-1-.69-2.07.36-2.48,1.58-2.36,1-1.69-1.48-0.45.47-0.57.27-0.46-.16-0.19-.82-0.49-.13-3-.12,0.82-.43,1.8-.08,0.83-.43,0.68,0.49,0.36-.27,0.25-.6,0.38-.5,0.47-.21,0.5-.13,1.27-.08,2.35-.54,1.11-.07,1.17,0.61,1.1-.88,1.68-.42,3.42-.15-0.33-1.1-0.31-.64-0.5-.33-1.91-.24-0.52.07-0.81.47-0.4-.3-0.31-.44-0.23-.23-0.56-1.12-0.62-.76-0.89-.35,0.09,0.37-0.12.85-0.23.92-0.25.6-0.64.59-0.78.37-1.69.37-1,0-1.74-.66-0.83-.16-1.48-.66-2.56-3.21-1.28-1.19-1.33,0-1.7-.43-3.12-1.33-1.32-.94-2.33-2.5-1.17-.75-0.57,0-1.18.42-0.84.11-0.77-.1-3.88-1.22-0.28-.53,0-.62-27,1-26.4,1-13.31.5q-0.1,13.44-.2,26.88-0.11,13.18-.22,26.36-0.11,13-.2,25.95-0.1,13.28-.22,26.55T251,304.67q-0.1,13.15-.22,26.3-0.05,6.07-.1,12.13l2.81-1.74,0.8-.87,0.47-.38,0.61-.15,0.44,0.22,0.63,1,0.27,0.22,0.74,0.42L260,344.4l2.13,0.21,4.32-2,2.15-.43,1.08,0.62,0.71,1.19,0.53,1.17,0.57,0.52,1,0.19,1.23,0.45,2.12,1.12,0.75,0.81,0.53,1.08,0.3,1.19,0.11,1.12,0.25,0.9,0.59,0.71,0.68,0.62,0.53,0.62,0.47,1.05,0.31,1.15,0.18,1.31,0.06,1.54,0.47,1.11,1.1,0.83,5.59,2.1,1.11,0.13,4.48-.88,1.18,0.17,2,1,2.13,0.6,0.78,0.93,0.67,1.15,0.77,1,3.39,3.44,2,1.36,2.19,0.48,1-.32,0.87-.75,0.62-1,0.24-1.2,0.56-.41,3.53-1.15,1.11,0.11,1,0.42,0.95,0.66,0.83,0.82,0.46,0.26,1.78,0,0.71,0.17,1.43,0.65,0.64,0.45,0.36,0.45,1.2,2,0.62,0.69,0.38,0.17,1.8-.42,0.61-.51,0.75-.46,1.17-.1,2.29,0.43,1.06-.05,0.89-.57,0.4-.64,0.53-1.34,0.27-.49,0.4-.32,1.35-.51,0.71-.68,0.7-.89,0.79-.77,1-.33,1.27-.19,3-1.55,1.3-.21,0.59,0.43,0.16,0.93v1.27l0.15,1.24,1.21,4.23,1.46,2.45,2.19,1.23,2.32,0.81,1.92,1.21,3.61,3.68,0.51,0.9,0.83,2.05,0.5,0.75v0l1.82,0.84,2.19-.23,4.23-1.52,3.76-.31,0.9-.36,0.72-1.11,0.39-1.13,1.07-5.61,0.56-1.38,0.69-.59,2.41,0.36,1.11-.21,0.77-1.05,0-.65-0.12-.86-0.2-.82-0.47-1.11,0.09-.65,0.33-.91-0.16-1.62-0.38-1-0.46-.88-0.37-1.1,0.15-1.5,0.86-.77,0.94-.66,0.58-1.48,0.65-1.13,0.25-.6,0.34-2.62,0.79-2,1.43-2.48,1.69-2.22,1.6-1.21,1.18,0,0.93,0.62,0.78,0.72L395.3,350l0.68,0.77,0.46,1,0.23,1,0.18,0.35,0.12,0.34,0,0.43-0.11.37-0.25.17-0.24.11-0.12.18-0.15.85-0.26.37-0.1.31,0.36,0.7,0.94,0.49,1.1-.57,1-1,0.6-.91,0.38-1.54,0.31-.76,0.52-.33,0.62,0.22,0.88,1,0.54,0.22,1-.29,0-.74-0.46-1-0.33-1.07,0.25-2.31-0.1-1.14-0.65-.49-0.31-.14-0.37-.35-0.34-.43-0.19-.39-0.22-.85v-0.22l0.3,0,2.51-1,0.4-.6,0.11-1.47-0.14-2.39,0.06-.8,0.39-1,2.41-2.82,0.78-2.19,1-.3,1.24,0,1.09-.42,0.34,0.48,0.4-.35,0.29-.11,0.31,0.11,0.39,0.35,0.59-.79,0.35-2.5,0.4-1.15,3.77-3.64,0.8-.39,2.13,0,0.47,0.51,0.47,1.14,0.67,1.2,1,0.72,1.18-.16,1.75-1.64,1-.4,1-.11,1.11-.31,1-.43,0.75-.51,1.42-1.57,0.9-.75,2-.74,0.77-1,1.15-2.13,1.61-1.83,5.58-4.4,3.45-2,0.09-.66,0.59-1.77,0-.31-0.08-.73,0-.29,0.22-.27,0.82-.66,0.27-1.25-0.16-.86-0.53-.75-0.78-.9-0.3-.78,0.41-.54,1.1-.71,0.27-.67,0.21-1.29,0.18-.66,0.31-.75,0.32-.55,0.93-1.16,0.12-.54-0.19-.7-0.26-.75-0.15-.67,0.22-1,0.53,0.07,0.67,0.37,0.64-.08,0.34-.64-0.06-.61-0.21-.54-0.07-.43,0.37-1.12,0.46-.79,0.39-.9,0.16-1.48-0.06-2.7,0.19-1.25,0.55-1.6,1.08-2.28,0.43-1.18,0.36-2.32,0.47-1.5,1-2.57,0.47-.51,1.36-1.12,0.28-.39,0.49-2,0.21-.38-0.06-.88-0.33-1.46,0-.33,0.07-.7,0-.32-0.22-.23-0.34-.15-0.32-.07h-0.14l0.09-1.53,1-2.57,0.25-1.48-0.17-1-0.44-1.17-1.13-2.19-1.66-2.26-0.37-1.13,0.52-1.32,0.92-.69,1.29-.44,1.26,0,0.86,0.49,2.24-1.6,0.78-.21v-88.9l-13,4.38Z" transform="translate(-250.57 -153.33)"/><path class="cls-2" d="M343.09,273.19a5,5,0,0,0-5,5,5,5,0,0,0,.79,2.65l3.82,5.35a0.48,0.48,0,0,0,.39.29h0a0.47,0.47,0,0,0,.39-0.29l3.82-5.35a5,5,0,0,0,.79-2.66A5,5,0,0,0,343.09,273.19Z" transform="translate(-250.57 -153.33)"/><circle class="cls-3" cx="92.52" cy="124.86" r="2"/></svg>