<svg id="Virginia" xmlns="http://www.w3.org/2000/svg" viewBox="0 0 371.51 161.73"><defs><style>.cls-1{fill:#e9efb6;stroke:#bdd142;stroke-linecap:round;stroke-linejoin:round;stroke-width:0.25px;}.cls-2{fill:#e83d3d;}.cls-3{fill:#fff;}</style></defs><title>virginia</title><path class="cls-1" d="M525.75,300.93l-1.32,2.87,0,0.27,0,0.42h0.3l1.06-1.78,0.5-1.13,0.25-1.27h-0.33Zm13.6-31.52c-3.59.5-7.18,1-10.78,1.43l-0.3.29-0.7,1.63L528,273l-0.56.58-0.72.26-1.43.3-1.09.66-1,.86V276l1.12-.18,1.24,0.3,0.81,0.64,0.13,0.81-0.29.43v0.49l0.21,0.52,0.37,0.48-0.46.1-1-.18-0.33.08-0.26.57v0.64l0.21,0.6,0.4,0.46-2.6.35-0.48-.25-0.49-.42-0.49-.08-0.49.74,0.88,0.89,0,0.75-0.59.7-0.92.72v0.42h0.95l0.07,0.32-1.54,1.7-0.05.5,0.27,0.85-1,0-0.84.17-0.65.45-0.47.89,0.65,0.84-0.5.33-1,.21-0.75.52,0.55,0.4-0.08.47-0.44.49-0.6.52,1.81,0.75-1,.57-0.91.85L514,297.59l-0.14,1.58,0.92-.44,0.41,0.34-0.06.58-1.22.63-0.52.78L513,302l-0.13.94h0.33l0.1-.35,0.17-.07,0.25,0,0.06,0,0,0.54-0.29.7-0.51.65-0.71.38,0.21,0.7-0.26,1-0.87,2,0.4-.17,0.25-.05,0.58,0.22-0.77.7-0.66,1.22-0.09,1.3,0.92,1v0.33l-0.21.75,1.1,1.71,0.33,1.12,0.24,1.24,0.57,0.38,0.69-.29,0.55-.79,0.12-.49,0.21-2,0.2-.56,0.43-.56,0.41-.27,0.2,0.24L516.66,316l0.3,0.65,1-.49-0.22-.61-0.17-1.23-0.21-.45,0.43-1,0.27-1.3,0.38-5,0.16-.63,0.23-.61,0.93-1.31,0.37-.68,0.08-.4-0.08-.47-0.06-.9,0.19-.65,0.85-1.18,0.19-.43,0.55-.38,3.39-.57-0.34-.6-0.55-.24-0.65-.12-0.6-.21,0.42-.79,0.71-.86,0.69-.35,0.31,0.69,0.17,1,0.41,0.64,0.48,0.54,0.4,0.69,0.87-.87,0.9-1.14,0.78-1.28,0.48-1.25-0.69-.44,0.2-1.47,0.63-1.67,0.84-1.63,0.53-2,3.62-7.23,1.67-1.85,0.33-.88L536.45,276l0.8-.31,0.12-.28-0.18-.4L537,274.3l0-1.38,0.07-.87,0.22-.64,0.63-.53,0.71-.29,0.56-.51Zm-25.56,67.1L512.9,332l-0.83-1.42-1-.1-1.22.39h-1.42l-1.76-.71-2.23-.21-4.18-1.6h-1.53l-0.89,1,0.09,0.85,0.48,0.31,0.21,0.33-0.62.94-0.11.6,0.34,0.71,0.81,1.14-0.72-.14-0.74-.45-0.45-.62,0.1-.64-0.93-.59-1.18-.35-1.24-.07-1.16.21-0.94.57-0.86.68-1,.56-1.18.1v-0.42l1.25-.91,0.62-.61,0.26-.52-0.24-.74-0.42-.64-0.09-.56,0.75-.51v-0.38l-2.71-1.49-0.6-.55-0.3-.21-0.38-.13-0.57-.06-0.27-.21,0.06-.33,0.13-.12,0.43-.31v-0.34l-2.65-.74-0.69-.42-0.29-.76,0-3.38-0.6-3.21-0.3-.59-0.61.23-1.23,1.54-0.87.12-0.81-.59L477.16,315l-0.63-.35h-4l-0.87-.35L470,313.08l-1-.26-0.37-.51-0.2-1.09-0.4-1-1-.39-0.35.17-1.33,1.15-0.52.26-0.38-.37-0.31-.55-0.28-.29h-3.77L457.27,309l-0.48.13-0.2-.17-0.44-.1-0.42-.29-0.15-.71,1.21-1.13,0.69,0.87,0.65,0.3,1.85,0,0.24,0.1,0.77,0.5,0.46,0.12,0.44,0,1.51-.57,0.4,0,0.38,0.18,0.44,0.44,0.11,0.34,0.32,0.73,0.32,0.55,0.16-.26,0.27-.36,1.38-1.12,0.47-.25,0.57,0.16,0.38,0.44,1.28,2.13,0.4,1,0.55,0.58,1-.12,0.83-.64,0.48-.55,0.22-.52v-1.48l0.17-.56,0.41-.43,0.19,1-0.05,1.26,0.07,1.08,0.56,0.44,0.61,0.18L477,313l0.76,0.18,0.34,0.19,0.21,0.48,0.16,0.56,0.21,0.46,0.44,0.31,0.22-.33,0.15-.55,0.24-.37,0.83-.22,1.83-.17,0.64-.36,0.91,0.71,0.74,1.2,0.29,1.45-0.4,1.55,0.3,0.38,0.53,0.77,0.89,1,1,0.73,0.77,0,3.89,3.45,0.56,0.79,0.48,2.17,0.61,0.21,0.7-.33,1.24-1.11,0.64-.35,0.75-.13,1.08,0,0.84-.33,0.57-.79,0.38-1.09,0.21-1.17,0-1.56-0.49-.35-1.78.44-0.73-.31,0.57-.68,1-.65,0.51-.24-0.29-.79-0.84-.83-1.28-.87-0.21.62-0.47-.13-0.51-.52-0.29-.52,0-.51,0.07-.7,0.12-.57,0.11-.13-0.54-.69-0.76-.07-1.87.34-0.92-.2-1-.5-1.78-1.17-2.9-2.54L483,306l-0.95-1.73-0.64-.9-1.38-.9-1.87-3.3-0.4-.23-0.48-.17-0.42-.22-0.18-.32,0-.63,0.1-.56,0.22-.39,0.4-.15,2.27,2.27,1.31,2.49,0.84,1.21,1,0.52,0.69,0.5,2.66,4.33,0.34,0.29,0.55,0.12,0.42,0.18,0.42,0.78,1.29,0.47L490.9,311l0.86,0.29,3.49-.78,0.21-.32-0.22-.73-0.4-.77-0.35-.44-0.38-.1-1.42.1v-0.34l1.25-.47,0.22-.12-0.09-.55-0.22-.21-0.32-.12-1.18-.9-0.21-.44,0.21-.6,0.42-.32,0.47,0,0.48,0.14,0.44,0.22L494,304l-0.21-.48-0.33-.4L493,303l0.57-1.35,0.83,0.73,1.33,2.47,0.8,0.26,0.64-.28,0.53-.08,0.12,0.85,1.78,2.29L500,308.6h0.28l0.13-1.65,1-3,0.05-1.71-0.35-1-0.49-.21h-0.52l-0.45-.36,0-.59,0.41-.59,0.59-.48,0.49-.26v-0.35l-1.26-1.26-0.61-.11L499,298.23l-0.43.58-0.94-.42-1.49-1.13-0.92-.19-0.69-.44v-0.49l1.18-.39,2.05-.21,0.77-.27,0.78-.65-1.81-.61-1.85-.2-1.61-.56L493,291.61l-0.66.31h-0.9l-2.7-.56-0.71-.41-0.55-.65-0.65-1.24-0.39-1-0.08-.43-0.05-.13-0.24-1.59-0.31-.4-1.2-1.24-0.47-.26-2-.37,0-.21,0.06-.73,0-.19-0.21-.07-0.19,0h-0.18l-0.47-.38-1-.34-0.19-.26-0.39-.73-0.22-.14-0.37-.42-1-1.88-0.21-.56-0.1-1.08-0.32-.49-1.38-.53-0.55-.35-0.71-.58L474,274l-0.45-1.23-0.42-.29-0.5-.26-0.42-.34-0.42-.56-0.09-.32-0.39-3.14-0.18-.34-0.83-.87-0.18-.3-0.52-.54-3.12-.8-0.42-.4-0.29-.44-0.15-.55,0-.73-0.16-.43-0.34,0-0.56.28-1.48-.22-0.77-.36-0.31-.59,0.35-.56,0.83,0,2,0.51,0.66,0.35,0.49,0.81,0.43,0.91,0.4,0.66,0.45-.06,2,0.4,0.69,0.42,0.53,0.55,0.86,1.33,1.24,3,0.38,0.38,1.75,1.35,0.61,1.76,2.68,1.43,0.61,1.76,1.67,2.67L481,279.8l0.58,0.3,0.6-.08,0.55-.57,0,0.82,0.22,0.53,0.36,0.32,0.4,0.22,0.52-.51,0.29,0.25,0.18,0.55,0.22,0.43,1.31,1,0.2,0.34,0.34,1.1,1.57,2,0.49,0.91,0,0.64,0.31,1,0.52,0.66,0.67-.08,0.49-2,0.43-.76,0.56,0.9,0.1,0.49,0.32,0.7,0.34,0.44,0.16,0.07,0.21-.29,0.48,0.38,0.46,0.56,0.18,0.29,2.44,0.94,1.24,0.22,0.73-.77-0.58,0-0.14-.38-0.63-.83-0.15-.55,0.21-.38,0.38-.21,0.25-.34-0.23-.76,0.41,0.17,0.52,0.12,0.51,0,0.35-.26-0.05-.65-1.39-1.18-0.35-.66,0.12-.22,0.29,0,0.3,0.08,0.2-.08,0.3-.75,0.17-.56,0-.51-0.19-.86-0.88-1.82-0.31-1.11,0.42-.49,0.7,0.38L500,280.5l0.79,0.09,0.46-.74,0.17-1.3,0-2.38-0.31-.62-0.75-.59-0.89-.5-4-1.53-1.64-1.15-2.14-.79-0.46-.3,0.32-.08,0.32-.21,0.25-.09-0.37-.4-0.43-.35-0.48-.28-0.54-.14-1.57.34-0.22-.14-0.06-.75-0.05-.21,0.55-.57,0.13-.75-0.59-.72-1.5-1-1-1-0.18-.28,0-1.17-0.12-.4-0.37-.15-0.52.08-0.91.3h-0.54L483,262.5l-0.3-.27-0.36-.25-0.5-.11-0.44.34-1,.63-1.06.28-0.49-.65-0.26-.7-0.67-.4-0.88-.18-0.9,0-1.76-.32-2.16-.81-1.7-1-0.61-1.37,0.1-.33,0.14-.33,0-.43-0.32-.45-0.4-.27-0.42-.2-0.36-.24-2-2.12-0.2-.12-0.41-.34-0.25-.35,0.26-.16,0.8,0.05,0.4-.05,0.31-.17,0.4-.82v-0.95l-0.24-.88-0.33-.61-1-.61-1,.48-1.17.83-2.14.68-1.46,1.07-0.81.25-2.87.38-1.85-.58-2.1-.21v-0.38l0.48-.12,1.48,0.12,0.48-.21-0.12-.46-0.51-.66-0.32-.61-1.55-1.57-0.5-.7,0.7-.38,0.55,0.36,0.86,1.17L454,245.65l0.51-2.42,0.66-2.08,0.12-1.06v-0.42l0.36-.16,0.82-.57-0.22-.28-0.17-.35-0.22-.17,0.58-.57,0.49-.86,0.35-1,0.13-.87,0.29-.84,0.62-.46h0.61l0.29,0.52,0.07,0.94,0.21,0.42,0.45,0,0.73-.37,0.56-.4,0.44-.55,0-.55-0.7-.42-0.31-.59,0-.68,0.45-.53,0.74-.16-0.12.73,0.23,0.41h0.32l0.31-1.07,0.34-.07,0.44,0,0.44-.2,0.89-.62,0.72-.23,0.47-.49,0.17-1.38,0-5.79-0.05-.27-0.23-.65-0.16-.33L464.89,220h0l-0.4-.53-1.67-1.4-0.23-.3-0.51-.68-0.49-.4-1.35-.28-1.48-.53-0.63-.12-0.6-.31-0.3-.74-0.19-.9-0.27-.77-1-1-1.29-.71-1.41-.4-3.89-.38-1-.58-1.58-1.61-0.66-.61L445.4,207l-0.25-.87,0.33-1,1.44-1.3,0.66-.86,0.15-1.16-0.48-.88-0.87-.39-1-.28-0.83-.57-0.85-1.44-0.47-.45-2-.49-1.87-.76-0.81-.16h-2.24l-0.86-.41c-1.46,3.53-3,7-4.44,10.58l-0.38-.33q-10.13-8.32-20.37-16.51l-0.66-.53-0.61.33-0.63,1-0.23.56-0.09.46v0.57l0.26,1.71,0,0.58-0.07.66-0.08.34L408,196l-0.63,1.08L406,199l-0.14.25-0.11.26,0,0.27v0.5l0.05,0.24,0.05,0.6,0,0.33-0.05.33-0.29.9-0.08.34-0.06.34,0,0.3,0,0.29,0.19,0.82,0,0.26,0,0.27-0.08.22-0.21.31-1.43,1.77L402.09,209l-1.74,2.1-0.73,1.2-0.1.22,0,0.2,0,0.21,0,0.22v0.22l-0.25.46-1.13,1.47-0.29.25-0.38.23-0.72.25-0.46.09-0.38.15-0.23.21-0.27.46L395,218l-0.3.48-0.26.25-0.34.25-1,.46-0.35.09h-0.27l-0.22-.05-0.18-.15-0.14-.19-0.12-.22-0.13-.21-0.14-.13H391.3l-0.23.16q-2.62,3.85-5.24,7.71l-0.24.28-0.26.17-0.31-.09c-1.58-1.1-3.16-2.2-4.73-3.31H380l-0.22.2L378,226.14l-0.31.52-0.2.46-0.06.29-0.13.33-0.19.38-0.78,1.09-0.2.44L376,230l-0.46,3.17-0.06.21-0.21.25-0.33.28-0.66.4-0.47.36-0.44.46-0.39.63-0.2.41-0.13.34-0.4,1.85-0.08.15v0.1L372,239l-0.63,1.93-0.26.56-0.29.5-3.41,4.75-0.2.2-0.23.14-0.33,0-9.11-3-0.13-.06-0.05,0,0.05-.21,0.18-.43,0-.2,0-.17,0-.1-0.11-.25-1.71-3.11-0.13-.19-0.14-.13-0.1-.07-3.68-1.37H351.5l-0.29.23-0.25.44-0.27,1-0.09.55,0,0.45,0,0.3,0,0.31-0.09.32-0.2.41-0.82,1.17,0,0.14-0.12.81,0,2.34-0.11.31-0.2.35-0.72.95-0.24.49-0.45,1.67-0.19.3-0.45.29-0.87.32-0.17.2-0.15.3-0.17.51-0.25.47-0.44.59-0.22.39-0.09.52,0.05,0.34,0.2,0.55,0.05,0.24,0,0.29-0.11.35-0.21.35-0.74.78-1,.66-0.43.38-1,1.22-2.06,1.9-0.15.26-0.09.3v0.43l0.12,0.57-0.07.35-1,3.13q-1.23,2.43-2.48,4.84L326.63,281l-0.06.18-0.37,1.28-0.15.39q-1.43,2.67-2.85,5.34l-0.21.57,0,0.2,0,0.13,0.1,0.12,0.55,0.53,0.48,0.32,1.25,0.65,0.2,0.21,0.13,0.3,0,0.49-0.1.34-0.16.28-0.4.36-0.92.59-0.73.35-0.29.18-0.32.26-0.46.48-0.21.38-0.11.35v0.26l0,0.26,0.12,0.22,0.17,0.18,0.5,0.34,0.17,0.25v0.59l-0.16.32-0.2.23-5.37,3-1.33,1.18-0.27.18-0.23.06-0.22,0-0.25,0-0.18-.1-0.17-.18-0.12-.22-0.07-.26,0-.28v-0.49l0-.19-0.07-.22-0.15-.21-0.43-.1-0.32,0-1,.11-1,.35-4,1.87-4,2.39-0.21.09L303,305h-0.16l-0.13-.09-0.13-.14-0.09-.21-0.11-.2-0.18-.14-0.22-.1-0.76-.16-0.2-.13-0.09-.19,0-.43-0.07-.16-0.14-.12-0.14,0-1.23-.28-0.38,0-0.44.05-0.6.22-0.34.23-0.24.25-0.16.26c-0.07.2-.13,0.4-0.2,0.6l0,0.31,0,0.31,0.08,0.26,0.65,1.18,0,0.32-0.05.38-0.29.57-0.25.33-0.23.23L294,309.8l-0.31.06-0.25,0-0.61-.53-0.34-.05-0.43,0-1.21.61-0.38.13-4.56.59-3.56,1.86-0.49.13-0.12-.07-0.11-.09-0.1-.15-0.16-.4-0.12-.2-0.17-.18-0.35-.3-2.3-1.47-0.21-.17-0.26-.29L277.09,308l-0.18-.2-0.28-.17-0.37-.08-0.55,0-0.37.22-0.21.23-0.12.24-0.31.9-0.18.39-0.27.43-0.53.61-0.35.29-0.32.17-1.75.19-0.66.19-0.37.18-0.29.19-2.28,2.46-0.34.24-0.3.13-1,.08-2.68-.25-0.54-.15-1.09-.8-1.57-.8-0.21-.18-0.39-.39-0.58-.91-0.15-.2-0.2-.19-0.23-.17-0.25-.13-0.38-.13-1-.1h-0.61l-0.56-.07-0.17,0-0.51-.31-0.38-.39-0.16-.21-0.12-.22-0.4-1-0.13-.23-0.16-.21-0.41-.35-2.1-1.48-0.18-.19-0.14-.23-0.09-.26,0-.3V304.5l0.15-1.33,0-.31,0-.29,0-.29-0.09-.26-0.11-.23-0.14-.19-0.15-.17-1.58-1-0.18-.18-0.08-.23v-0.25l0.1-.26,0.14-.19,1.07-.83,0.08-.16,0.06-.23,0.05-.29v-0.31l-0.06-.29-0.12-.26-0.13-.19-0.38-.4-17,14.36-1.07.73q-5.66,2.77-11.3,5.58l-2.16,1.48-0.81.8-0.37.52,0,0.35,0.15,0.86,0.07,1.23,0,0.33-0.07.31-0.12.29-0.14.26-0.18.21-0.46.3-3.9,1.91-1,.82-0.43.46-0.23.44,0,0.9,0,0.29,0,0.6-0.08.83-0.06.27-0.09.28-0.12.28-0.16.24-0.18.21-0.66.36-5.42,2.08h-1.87l-0.29.08-0.26.17-0.89.93-0.81,1.77-0.3.47-0.52.57-0.12.18,0,0.21,0.08,0.51,0,0.28-0.09.26-0.23.19-0.39.18-4.51.7-4.51,1.52-1.75,1-0.57.48-0.33.18-0.48.16-4.21.43-3.89,1.42-0.3,0-0.85.4-1.94,1.68L201,347.82,226.72,348l23.06,0.12,0.35-.15,0.95-.83,0.39-.11,0.39,0c3.62,0.16,7.24.29,10.86,0.44L263,348l0.16,0.16,0.3,0.09c8.6,0.12,17.2.17,25.8,0.26l27.87,0.27,25,0.25L370,349.26l25.41,0.25q13.63,0.14,27.26.27c8.77,0.07,17.54.18,26.31,0.26l26.31,0.26,27.27,0.26,7.92,0.07-0.14-.52-0.22-.42-0.18-.47,0-.74,1.38,2.15,2,0-0.06-.1-0.33-3,0.57-5.62,0.22-.55,0.48,0.05,0.52,0.34,0.3,0.33,0.26,0.6,1,3.88,0.21,0.4,0.52,0.68,0.16,0.44v0.63l-0.16.59-0.08.62,0.22,0.72,0.59,0h0.63l-0.47-2.27Zm1,13-0.74.48,0.31,0.61,0,0h1.5l-0.23-1.44Zm30.29-80.85-0.29,0-0.17.32-1,1.3-0.85,1.26-0.31.63-0.59,1.85-0.31.43-0.22.57-0.38.35-0.49.17-0.56.05-0.13.21,0.26,0.48,0.63,0.86-0.4.2-0.46.13-0.47.07-0.48,0v0.42l1.43-.09,1.24-1.12,1-1.65,3-6.49Zm-24.44,41.66-0.23,1.18L520,312.57l-0.81.59h-0.32v0.34l1.46-.12,0.73-.81,0.22-1.38,0-1.83h-0.29Z" transform="translate(-174.16 -189.08)"/><path class="cls-2" d="M447.9,282.81a5,5,0,0,0-5,5,5,5,0,0,0,.79,2.65l3.82,5.35a0.48,0.48,0,0,0,.39.29h0a0.47,0.47,0,0,0,.39-0.29l3.82-5.35a5,5,0,0,0,.79-2.66A5,5,0,0,0,447.9,282.81Z" transform="translate(-174.16 -189.08)"/><circle class="cls-3" cx="273.74" cy="98.72" r="2"/></svg>